<mxfile host="app.diagrams.net" modified="2023-11-06T13:54:59.046Z" agent="Mozilla/5.0 (Windows NT 10.0; Win64; x64) AppleWebKit/537.36 (KHTML, like Gecko) Chrome/119.0.0.0 Safari/537.36" etag="iZ4h05jXEsEoGseP_Yda" version="22.0.8" type="device">
  <diagram name="PÃ¡gina-1" id="qhZncrpZMVdeDm67GidX">
    <mxGraphModel dx="1434" dy="760" grid="1" gridSize="10" guides="1" tooltips="1" connect="1" arrows="1" fold="1" page="1" pageScale="1" pageWidth="827" pageHeight="1169" math="0" shadow="0">
      <root>
        <mxCell id="0" />
        <mxCell id="1" parent="0" />
        <mxCell id="tEAn2FcVYvchEjCjoZxo-43" style="edgeStyle=orthogonalEdgeStyle;rounded=0;orthogonalLoop=1;jettySize=auto;html=1;" parent="1" source="tEAn2FcVYvchEjCjoZxo-20" target="tEAn2FcVYvchEjCjoZxo-24" edge="1">
          <mxGeometry relative="1" as="geometry" />
        </mxCell>
        <mxCell id="tEAn2FcVYvchEjCjoZxo-44" style="edgeStyle=orthogonalEdgeStyle;rounded=0;orthogonalLoop=1;jettySize=auto;html=1;" parent="1" source="tEAn2FcVYvchEjCjoZxo-20" target="tEAn2FcVYvchEjCjoZxo-28" edge="1">
          <mxGeometry relative="1" as="geometry">
            <Array as="points">
              <mxPoint x="650" y="590" />
              <mxPoint x="650" y="231" />
            </Array>
          </mxGeometry>
        </mxCell>
        <mxCell id="tEAn2FcVYvchEjCjoZxo-45" style="edgeStyle=orthogonalEdgeStyle;rounded=0;orthogonalLoop=1;jettySize=auto;html=1;" parent="1" source="tEAn2FcVYvchEjCjoZxo-20" target="tEAn2FcVYvchEjCjoZxo-32" edge="1">
          <mxGeometry relative="1" as="geometry">
            <Array as="points">
              <mxPoint x="700" y="630" />
              <mxPoint x="700" y="85" />
            </Array>
          </mxGeometry>
        </mxCell>
        <mxCell id="tEAn2FcVYvchEjCjoZxo-20" value="Player" style="swimlane;fontStyle=1;align=center;verticalAlign=top;childLayout=stackLayout;horizontal=1;startSize=26;horizontalStack=0;resizeParent=1;resizeParentMax=0;resizeLast=0;collapsible=1;marginBottom=0;whiteSpace=wrap;html=1;" parent="1" vertex="1">
          <mxGeometry x="30" y="470" width="160" height="210" as="geometry" />
        </mxCell>
        <mxCell id="tEAn2FcVYvchEjCjoZxo-21" value="+ tamanho: int&lt;br&gt;+ velocidade: int&lt;br&gt;+ pontos: int&lt;br&gt;+ posicao: int&lt;br&gt;+ vivo: boolean&lt;br&gt;+nickname: string&lt;br&gt;+ vidas: int&lt;br&gt;&amp;nbsp;" style="text;strokeColor=none;fillColor=none;align=left;verticalAlign=top;spacingLeft=4;spacingRight=4;overflow=hidden;rotatable=0;points=[[0,0.5],[1,0.5]];portConstraint=eastwest;whiteSpace=wrap;html=1;" parent="tEAn2FcVYvchEjCjoZxo-20" vertex="1">
          <mxGeometry y="26" width="160" height="104" as="geometry" />
        </mxCell>
        <mxCell id="tEAn2FcVYvchEjCjoZxo-22" value="" style="line;strokeWidth=1;fillColor=none;align=left;verticalAlign=middle;spacingTop=-1;spacingLeft=3;spacingRight=3;rotatable=0;labelPosition=right;points=[];portConstraint=eastwest;strokeColor=inherit;" parent="tEAn2FcVYvchEjCjoZxo-20" vertex="1">
          <mxGeometry y="130" width="160" height="20" as="geometry" />
        </mxCell>
        <mxCell id="tEAn2FcVYvchEjCjoZxo-23" value="+ mover(): void&lt;br&gt;+ crescer(): void&lt;br&gt;+ power_up(): void" style="text;strokeColor=none;fillColor=none;align=left;verticalAlign=top;spacingLeft=4;spacingRight=4;overflow=hidden;rotatable=0;points=[[0,0.5],[1,0.5]];portConstraint=eastwest;whiteSpace=wrap;html=1;" parent="tEAn2FcVYvchEjCjoZxo-20" vertex="1">
          <mxGeometry y="150" width="160" height="60" as="geometry" />
        </mxCell>
        <mxCell id="tEAn2FcVYvchEjCjoZxo-24" value="Fruta" style="swimlane;fontStyle=1;align=center;verticalAlign=top;childLayout=stackLayout;horizontal=1;startSize=26;horizontalStack=0;resizeParent=1;resizeParentMax=0;resizeLast=0;collapsible=1;marginBottom=0;whiteSpace=wrap;html=1;" parent="1" vertex="1">
          <mxGeometry x="370" y="320" width="160" height="86" as="geometry" />
        </mxCell>
        <mxCell id="tEAn2FcVYvchEjCjoZxo-25" value="+ posicao: int" style="text;strokeColor=none;fillColor=none;align=left;verticalAlign=top;spacingLeft=4;spacingRight=4;overflow=hidden;rotatable=0;points=[[0,0.5],[1,0.5]];portConstraint=eastwest;whiteSpace=wrap;html=1;" parent="tEAn2FcVYvchEjCjoZxo-24" vertex="1">
          <mxGeometry y="26" width="160" height="26" as="geometry" />
        </mxCell>
        <mxCell id="tEAn2FcVYvchEjCjoZxo-26" value="" style="line;strokeWidth=1;fillColor=none;align=left;verticalAlign=middle;spacingTop=-1;spacingLeft=3;spacingRight=3;rotatable=0;labelPosition=right;points=[];portConstraint=eastwest;strokeColor=inherit;" parent="tEAn2FcVYvchEjCjoZxo-24" vertex="1">
          <mxGeometry y="52" width="160" height="8" as="geometry" />
        </mxCell>
        <mxCell id="tEAn2FcVYvchEjCjoZxo-27" value="+ surgir(): void" style="text;strokeColor=none;fillColor=none;align=left;verticalAlign=top;spacingLeft=4;spacingRight=4;overflow=hidden;rotatable=0;points=[[0,0.5],[1,0.5]];portConstraint=eastwest;whiteSpace=wrap;html=1;" parent="tEAn2FcVYvchEjCjoZxo-24" vertex="1">
          <mxGeometry y="60" width="160" height="26" as="geometry" />
        </mxCell>
        <mxCell id="tEAn2FcVYvchEjCjoZxo-28" value="Armadilha" style="swimlane;fontStyle=1;align=center;verticalAlign=top;childLayout=stackLayout;horizontal=1;startSize=26;horizontalStack=0;resizeParent=1;resizeParentMax=0;resizeLast=0;collapsible=1;marginBottom=0;whiteSpace=wrap;html=1;" parent="1" vertex="1">
          <mxGeometry x="390" y="176" width="160" height="110" as="geometry" />
        </mxCell>
        <mxCell id="tEAn2FcVYvchEjCjoZxo-29" value="+ posicao: int&lt;br&gt;+ tipo: TipoArmadilha" style="text;strokeColor=none;fillColor=none;align=left;verticalAlign=top;spacingLeft=4;spacingRight=4;overflow=hidden;rotatable=0;points=[[0,0.5],[1,0.5]];portConstraint=eastwest;whiteSpace=wrap;html=1;" parent="tEAn2FcVYvchEjCjoZxo-28" vertex="1">
          <mxGeometry y="26" width="160" height="34" as="geometry" />
        </mxCell>
        <mxCell id="tEAn2FcVYvchEjCjoZxo-30" value="" style="line;strokeWidth=1;fillColor=none;align=left;verticalAlign=middle;spacingTop=-1;spacingLeft=3;spacingRight=3;rotatable=0;labelPosition=right;points=[];portConstraint=eastwest;strokeColor=inherit;" parent="tEAn2FcVYvchEjCjoZxo-28" vertex="1">
          <mxGeometry y="60" width="160" height="8" as="geometry" />
        </mxCell>
        <mxCell id="tEAn2FcVYvchEjCjoZxo-31" value="+ surgir(): void&lt;br&gt;+ desativar(): void" style="text;strokeColor=none;fillColor=none;align=left;verticalAlign=top;spacingLeft=4;spacingRight=4;overflow=hidden;rotatable=0;points=[[0,0.5],[1,0.5]];portConstraint=eastwest;whiteSpace=wrap;html=1;" parent="tEAn2FcVYvchEjCjoZxo-28" vertex="1">
          <mxGeometry y="68" width="160" height="42" as="geometry" />
        </mxCell>
        <mxCell id="tEAn2FcVYvchEjCjoZxo-32" value="PowerUp" style="swimlane;fontStyle=1;align=center;verticalAlign=top;childLayout=stackLayout;horizontal=1;startSize=26;horizontalStack=0;resizeParent=1;resizeParentMax=0;resizeLast=0;collapsible=1;marginBottom=0;whiteSpace=wrap;html=1;" parent="1" vertex="1">
          <mxGeometry x="390" y="20" width="160" height="130" as="geometry" />
        </mxCell>
        <mxCell id="tEAn2FcVYvchEjCjoZxo-33" value="+ tipo: TipoPowerUp&lt;br&gt;+posicao: int&lt;br&gt;+ duracao: int" style="text;strokeColor=none;fillColor=none;align=left;verticalAlign=top;spacingLeft=4;spacingRight=4;overflow=hidden;rotatable=0;points=[[0,0.5],[1,0.5]];portConstraint=eastwest;whiteSpace=wrap;html=1;" parent="tEAn2FcVYvchEjCjoZxo-32" vertex="1">
          <mxGeometry y="26" width="160" height="54" as="geometry" />
        </mxCell>
        <mxCell id="tEAn2FcVYvchEjCjoZxo-34" value="" style="line;strokeWidth=1;fillColor=none;align=left;verticalAlign=middle;spacingTop=-1;spacingLeft=3;spacingRight=3;rotatable=0;labelPosition=right;points=[];portConstraint=eastwest;strokeColor=inherit;" parent="tEAn2FcVYvchEjCjoZxo-32" vertex="1">
          <mxGeometry y="80" width="160" height="8" as="geometry" />
        </mxCell>
        <mxCell id="tEAn2FcVYvchEjCjoZxo-35" value="+ ativar(): void&lt;br&gt;+desativar(): void" style="text;strokeColor=none;fillColor=none;align=left;verticalAlign=top;spacingLeft=4;spacingRight=4;overflow=hidden;rotatable=0;points=[[0,0.5],[1,0.5]];portConstraint=eastwest;whiteSpace=wrap;html=1;" parent="tEAn2FcVYvchEjCjoZxo-32" vertex="1">
          <mxGeometry y="88" width="160" height="42" as="geometry" />
        </mxCell>
        <mxCell id="tEAn2FcVYvchEjCjoZxo-41" style="edgeStyle=orthogonalEdgeStyle;rounded=0;orthogonalLoop=1;jettySize=auto;html=1;" parent="1" source="tEAn2FcVYvchEjCjoZxo-36" target="tEAn2FcVYvchEjCjoZxo-28" edge="1">
          <mxGeometry relative="1" as="geometry" />
        </mxCell>
        <mxCell id="tEAn2FcVYvchEjCjoZxo-42" style="edgeStyle=orthogonalEdgeStyle;rounded=0;orthogonalLoop=1;jettySize=auto;html=1;entryX=0;entryY=0.5;entryDx=0;entryDy=0;" parent="1" source="tEAn2FcVYvchEjCjoZxo-36" target="tEAn2FcVYvchEjCjoZxo-25" edge="1">
          <mxGeometry relative="1" as="geometry" />
        </mxCell>
        <mxCell id="tEAn2FcVYvchEjCjoZxo-36" value="Game" style="swimlane;fontStyle=1;align=center;verticalAlign=top;childLayout=stackLayout;horizontal=1;startSize=26;horizontalStack=0;resizeParent=1;resizeParentMax=0;resizeLast=0;collapsible=1;marginBottom=0;whiteSpace=wrap;html=1;" parent="1" vertex="1">
          <mxGeometry x="20" y="20" width="160" height="240" as="geometry" />
        </mxCell>
        <mxCell id="tEAn2FcVYvchEjCjoZxo-37" value="&lt;div&gt;+ cobra: Player&amp;nbsp; &amp;nbsp; &amp;nbsp; &amp;nbsp; &amp;nbsp; &amp;nbsp; &amp;nbsp; &amp;nbsp; &amp;nbsp; &amp;nbsp;&lt;/div&gt;&lt;div&gt;+ frutas: Fruta&amp;nbsp; &amp;nbsp; &amp;nbsp; &amp;nbsp; &amp;nbsp;&amp;nbsp;&lt;/div&gt;&lt;div&gt;+ armadilhas: Armadilha&lt;/div&gt;&lt;div&gt;+ power_ups: PowerUp&amp;nbsp;&lt;span style=&quot;background-color: initial;&quot;&gt;&amp;nbsp; &amp;nbsp; &amp;nbsp; &lt;/span&gt;&lt;span style=&quot;background-color: initial;&quot;&gt;+ pontuacao_maxima: int&lt;/span&gt;&lt;/div&gt;" style="text;strokeColor=none;fillColor=none;align=left;verticalAlign=top;spacingLeft=4;spacingRight=4;overflow=hidden;rotatable=0;points=[[0,0.5],[1,0.5]];portConstraint=eastwest;whiteSpace=wrap;html=1;" parent="tEAn2FcVYvchEjCjoZxo-36" vertex="1">
          <mxGeometry y="26" width="160" height="84" as="geometry" />
        </mxCell>
        <mxCell id="tEAn2FcVYvchEjCjoZxo-38" value="" style="line;strokeWidth=1;fillColor=none;align=left;verticalAlign=middle;spacingTop=-1;spacingLeft=3;spacingRight=3;rotatable=0;labelPosition=right;points=[];portConstraint=eastwest;strokeColor=inherit;" parent="tEAn2FcVYvchEjCjoZxo-36" vertex="1">
          <mxGeometry y="110" width="160" height="8" as="geometry" />
        </mxCell>
        <mxCell id="tEAn2FcVYvchEjCjoZxo-39" value="&lt;div&gt;&amp;nbsp;+ iniciar_jogo()&amp;nbsp; &amp;nbsp; &amp;nbsp; &amp;nbsp; &amp;nbsp; &amp;nbsp; &amp;nbsp; &amp;nbsp; &amp;nbsp;&lt;/div&gt;&lt;div&gt;&amp;nbsp;+ encerrar_jogo()&amp;nbsp; &amp;nbsp; &amp;nbsp; &amp;nbsp; &amp;nbsp; &amp;nbsp; &amp;nbsp; &amp;nbsp;&amp;nbsp;&lt;/div&gt;&lt;div&gt;&amp;nbsp;+ atualizar_jogo()&amp;nbsp; &amp;nbsp; &amp;nbsp; &amp;nbsp; &amp;nbsp; &amp;nbsp; &amp;nbsp; &amp;nbsp;&lt;/div&gt;&lt;div&gt;&amp;nbsp;+ verificar_colisoes()&amp;nbsp; &amp;nbsp; &amp;nbsp; &amp;nbsp; &amp;nbsp;&amp;nbsp;&lt;/div&gt;&lt;div&gt;&amp;nbsp;+ coletar_fruta()&amp;nbsp; &amp;nbsp; &amp;nbsp; &amp;nbsp; &amp;nbsp; &amp;nbsp; &amp;nbsp; &amp;nbsp;&amp;nbsp;&lt;/div&gt;&lt;div&gt;&amp;nbsp;+ ativar_power_up()&amp;nbsp; &amp;nbsp; &amp;nbsp; &amp;nbsp; &amp;nbsp; &amp;nbsp;&amp;nbsp;&lt;/div&gt;&lt;div&gt;&amp;nbsp;+ adicionar_armadilha()&lt;/div&gt;" style="text;strokeColor=none;fillColor=none;align=left;verticalAlign=top;spacingLeft=4;spacingRight=4;overflow=hidden;rotatable=0;points=[[0,0.5],[1,0.5]];portConstraint=eastwest;whiteSpace=wrap;html=1;" parent="tEAn2FcVYvchEjCjoZxo-36" vertex="1">
          <mxGeometry y="118" width="160" height="122" as="geometry" />
        </mxCell>
        <mxCell id="tEAn2FcVYvchEjCjoZxo-40" style="edgeStyle=orthogonalEdgeStyle;rounded=0;orthogonalLoop=1;jettySize=auto;html=1;" parent="1" source="tEAn2FcVYvchEjCjoZxo-36" target="tEAn2FcVYvchEjCjoZxo-32" edge="1">
          <mxGeometry relative="1" as="geometry">
            <Array as="points">
              <mxPoint x="285" y="110" />
              <mxPoint x="285" y="85" />
            </Array>
          </mxGeometry>
        </mxCell>
      </root>
    </mxGraphModel>
  </diagram>
</mxfile>
